# xmcd
#
# Track frame offsets: 
#        150
#        14325
#        26841
#        40497
#        52191
#        65555
#        77507
#        89712
#        104342
#        117735
#        130432
#        143709
#        156098
#        169366
#        181954
#        195109
#        207040
#        218911
#        232703
#        244480
#        256466
#        268530
#        281080
#        293825
#
# Disc length: 4068 seconds
#
# Revision: 2
# Processed by: cddbd v1.5.2PL0 Copyright (c) Steve Scherf et al.
# Submitted via: ExactAudioCopy v1.0b1
#
DISCID=6e0fe218
DTITLE=Lucky Millinder - Apollo Jump cd 2
DYEAR=2002
DGENRE=R&B
TTITLE0=Chittlin' Switch (mono)
TTITLE1=Fare Thee Well, Deacon Jones (mono)
TTITLE2=The Spider And The Fly (mono)
TTITLE3=Let It Roll (mono)
TTITLE4=Begging For Love (mono)
TTITLE5=Don't Hesitate Too Long (mono)
TTITLE6=Who Said Shorty Wasn't Coming Back? (mono)
TTITLE7=Mr. Trumpet Man (mono)
TTITLE8=Let It Roll Again (mono)
TTITLE9=My Little Baby (mono)
TTITLE10=The Jumpin' Jack (mono)
TTITLE11=Clap Your Hands (mono)
TTITLE12=Oh! Babe (mono)
TTITLE13=Please Open Your Heart (mono)
TTITLE14=Teardrops From My Eyes (mono)
TTITLE15=Silent George (mono)
TTITLE16=Chew Tobacco Rag (mono)
TTITLE17=Georgia Rose (mono)
TTITLE18=I'm Waiting Just For You (mono)
TTITLE19=Bongo Boogie (mono)
TTITLE20=The Right Kind Of Lovin' (mono)
TTITLE21=No On Else Could Be (mono)
TTITLE22=It's Been A Long Time (mono)
TTITLE23=The Grape Vine (mono)
EXTD=\n\n
EXTT0=
EXTT1=
EXTT2=
EXTT3=
EXTT4=
EXTT5=
EXTT6=
EXTT7=
EXTT8=
EXTT9=
EXTT10=
EXTT11=
EXTT12=
EXTT13=
EXTT14=
EXTT15=
EXTT16=
EXTT17=
EXTT18=
EXTT19=
EXTT20=
EXTT21=
EXTT22=
EXTT23=
PLAYORDER=
